# xmcd CD database file
#
# Track frame offsets:
#	150
#	27536
#	52075
#	69179
#	89169
#	101530
#	121945
#	149398
#	175534
#	199360
#	221717
#	238966
#	263147
#
# Disc length: 3612 seconds
#
# Revision: 4
# Processed by: cddbd v1.4PL0 Copyright (c) Steve Scherf et al.
# Submitted via: CDex 1.40Release
#
DISCID=c80e1a0d
DTITLE=Cassandra Wilson - Belly Of The Sun
DYEAR=2002
DGENRE=Blues
TTITLE0=The Weight
TTITLE1=Justice
TTITLE2=Darkness On The Delta
TTITLE3=Waters Of March
TTITLE4=You Gotta Move
TTITLE5=Only A Dream In Rio
TTITLE6=Just Another Parade
TTITLE7=Wichita Lineman
TTITLE8=Shelter From The Storm
TTITLE9=Drunk As Cooter Brown
TTITLE10=Show Me A Love
TTITLE11=Road So Clear
TTITLE12=Hot Tamales
EXTD=YEAR: 2002 ID3G: 0
EXTT0=
EXTT1=
EXTT2=
EXTT3=
EXTT4=
EXTT5=
EXTT6=
EXTT7=
EXTT8=
EXTT9=
EXTT10=
EXTT11=
EXTT12=
PLAYORDER=
